<?xml version="1.0" encoding="iso-8859-1"?>
<!-- Generator: Adobe Illustrator 16.0.0, SVG Export Plug-In . SVG Version: 6.00 Build 0)  -->
<!DOCTYPE svg PUBLIC "-//W3C//DTD SVG 1.1//EN" "http://www.w3.org/Graphics/SVG/1.1/DTD/svg11.dtd">
<svg version="1.1" id="Layer_1" xmlns="http://www.w3.org/2000/svg" xmlns:xlink="http://www.w3.org/1999/xlink" x="0px" y="0px"
	 width="30.818px" height="32px" viewBox="0 0 30.818 32" style="enable-background:new 0 0 30.818 32;" xml:space="preserve">
<path d="M30.808,27.996c-0.112-1.791-3.883-2.575-3.883-2.575s3.36-1.493,1.008-4.331c0.411-5.451-7.99-0.673-7.953-2.314
	c0.038-1.643,5.115-2.129,5.227-4.367c0.112-2.241-1.83-3.324-1.83-3.324s1.083-0.896,0.784-3.061
	c-0.299-2.165-2.016-2.278-2.016-2.278s1.605-3.024,1.083-4.479c-1.083-4.555-7.916,4.667-8.923,4.479
	c-1.008-0.187,0.299-5.115-1.904-5.04c-2.203,0.074-4.032,2.65-4.48,5.563C7.474,9.18,6.316,17.17,10.983,21.949
	c0.474,0.389,0.946,0.809,1.412,1.236c-1.166-0.564-2.094-0.911-2.022-0.823c-0.119,0.013-0.231,0.048-0.331,0.104
	c-2.401-1.531-4.458-3.561-5.139-4.76c-0.291-0.512-0.433-1.926-0.583-3.424c-0.175-1.738-0.37-3.675-0.848-4.737
	c0.065-0.071,0.108-0.167,0.108-0.271c0-0.229-0.184-0.411-0.411-0.411c-0.226,0-0.41,0.183-0.41,0.411
	c0,0.226,0.184,0.408,0.41,0.408c0.039,0,0.074-0.012,0.11-0.021c0.453,1.021,0.645,2.93,0.817,4.645
	c0.159,1.588,0.297,2.959,0.611,3.51c0.621,1.093,2.349,2.855,4.443,4.325c-1.48-0.425-7.421-2.276-8.543-5.149
	c0.124-0.07,0.212-0.197,0.212-0.351c0-0.226-0.184-0.409-0.411-0.409c-0.226,0-0.41,0.184-0.41,0.409
	c0,0.221,0.174,0.396,0.392,0.407c1.287,3.384,8.691,5.31,9.014,5.393l0.405,0.213c-0.133,0.152-0.216,0.35-0.216,0.568
	c0,0.478,0.388,0.867,0.868,0.867c0.349,0,0.648-0.207,0.786-0.503c0.25,0.338,0.805,0.97,1.847,1.567
	c1.512,0.867,4.998,1.428,5.32,5.586c0.055-0.495,0.354-1.506-0.347-2.857c2.101,0.768,7.14-0.782,7.14-0.782
	s2.128,2.837,2.501,4.032s1.195,1.232,1.307-0.373c0.112-1.605-3.099-4.219-3.099-4.219l0.672-0.374c0,0,2.315,1.53,2.912,2.427
	C30.098,29.491,30.92,29.788,30.808,27.996z"/>
<g>
</g>
<g>
</g>
<g>
</g>
<g>
</g>
<g>
</g>
<g>
</g>
<g>
</g>
<g>
</g>
<g>
</g>
<g>
</g>
<g>
</g>
<g>
</g>
<g>
</g>
<g>
</g>
<g>
</g>
</svg>
